<svg xmlns="http://www.w3.org/2000/svg" width="860" height="176" viewBox="0 0 860 176" font-family="-apple-system, BlinkMacSystemFont, 'Segoe UI', Helvetica, Arial, sans-serif">
  <rect width="860" height="176" fill="#ffffff"/>
  <rect x="1" y="1" width="858" height="174" rx="6" fill="#ffffff" stroke="#d0d7de"/>

  <!-- c1: reviewer -->
  <rect x="2" y="2" width="856" height="30" fill="#f6f8fa"/>
  <circle cx="28" cy="17" r="11" fill="#ffcc80"/>
  <circle cx="24.5" cy="15" r="1.3" fill="#4d4d4d"/><circle cx="31.5" cy="15" r="1.3" fill="#4d4d4d"/>
  <path d="M24 19 Q28 22.5 32 19" stroke="#4d4d4d" stroke-width="1.4" fill="none" stroke-linecap="round"/>
  <text x="50" y="21" font-size="13.5" fill="#1f2328" font-weight="600">bob<tspan font-weight="400" fill="#656d76">&#160;commented on&#160;</tspan><tspan font-weight="600" fill="#0969da">src/users.ts</tspan><tspan font-weight="400" fill="#656d76">&#160;line 42</tspan></text>
  <text x="844" y="21" font-size="12" fill="#656d76" text-anchor="end">2 days ago</text>
  <text x="20" y="54" font-size="13.5" fill="#1f2328">This membership check scans the array on every call, O(n) per lookup in a</text>
  <text x="20" y="72" font-size="13.5" fill="#1f2328">hot path. Can we avoid the repeated scan?</text>
  <rect x="2" y="90" width="856" height="1" fill="#d0d7de"/>

  <!-- c2: your reply, rewritten in place by the skill -->
  <rect x="2" y="90" width="856" height="30" fill="#f6f8fa"/>
  <circle cx="28" cy="105" r="11" fill="#a5d6a7"/>
  <circle cx="24.5" cy="103" r="1.3" fill="#4d4d4d"/><circle cx="31.5" cy="103" r="1.3" fill="#4d4d4d"/>
  <path d="M24 107 Q28 110.5 32 107" stroke="#4d4d4d" stroke-width="1.4" fill="none" stroke-linecap="round"/>
  <text x="50" y="109" font-size="13.5" fill="#1f2328" font-weight="600">fstermann<tspan font-weight="400" fill="#656d76">&#160;commented&#160;·&#160;edited</tspan></text>
  <text x="844" y="109" font-size="12" fill="#656d76" text-anchor="end">just now</text>
  <text x="20" y="142" font-size="13.5" fill="#1f2328">Done in <tspan font-family="ui-monospace, SFMono-Regular, Menlo, Consolas, monospace" fill="#0550ae">a1b2c3</tspan>: switched to a Set, lookups are now O(1).</text>
</svg>
